HIERARCHY
ROOT Hips
{
	OFFSET 0.000000 0.000000 0.000000
	CHANNELS 6 Xposition Yposition Zposition Zrotation Yrotation Xrotation 
	JOINT LeftUpLeg_virtual
	{
		OFFSET 0.000000 0.000000 0.000000
		CHANNELS 3 Zrotation Yrotation Xrotation
		JOINT LeftUpLeg
		{
			OFFSET 10.205400 -3.823500 0.155100
			CHANNELS 3 Zrotation Yrotation Xrotation
			JOINT LeftLeg
			{
				OFFSET 0.708757 -12.982077 0.567790
				CHANNELS 3 Zrotation Yrotation Xrotation
				JOINT LeftFoot
				{
					OFFSET -0.708756 -10.717838 -2.184338
					CHANNELS 3 Zrotation Yrotation Xrotation
					JOINT LeftToeBase
					{
						OFFSET 0.108149 -7.191104 7.560241
						CHANNELS 3 Zrotation Yrotation Xrotation
						End Site
						{
							OFFSET 0.000000 0.000000 0.000000
						}
					}
				}
			}
		}
	}
	JOINT RightUpLeg_virtual
	{
		OFFSET 0.000000 0.000000 0.000000
		CHANNELS 3 Zrotation Yrotation Xrotation
		JOINT RightUpLeg
		{
			OFFSET -10.205400 -3.823500 0.005500
			CHANNELS 3 Zrotation Yrotation Xrotation
			JOINT RightLeg
			{
				OFFSET -0.708756 -12.982134 0.610632
				CHANNELS 3 Zrotation Yrotation Xrotation
				JOINT RightFoot
				{
					OFFSET 0.708754 -10.717769 -1.945823
					CHANNELS 3 Zrotation Yrotation Xrotation
					JOINT RightToeBase
					{
						OFFSET -0.108140 -7.191069 7.372968
						CHANNELS 3 Zrotation Yrotation Xrotation
						End Site
						{
							OFFSET 0.000000 0.000000 0.000000
						}
					}
				}
			}
		}
	}
	JOINT Spine_virtual
	{
		OFFSET 0.000000 0.000000 0.000000
		CHANNELS 3 Zrotation Yrotation Xrotation
		JOINT Spine
		{
			OFFSET 0.000000 6.876099 0.125700
			CHANNELS 3 Zrotation Yrotation Xrotation
			JOINT Spine1
			{
				OFFSET 0.000000 8.022060 0.146608
				CHANNELS 3 Zrotation Yrotation Xrotation
				JOINT Spine2
				{
					OFFSET 0.000000 9.168068 0.167552
					CHANNELS 3 Zrotation Yrotation Xrotation
					JOINT Neck_virtual
					{
						OFFSET 0.000000 0.000000 0.000000
						CHANNELS 3 Zrotation Yrotation Xrotation
						JOINT Neck
						{
							OFFSET 0.000000 10.314075 0.188496
							CHANNELS 3 Zrotation Yrotation Xrotation
							JOINT Head
							{
								OFFSET 0.000000 7.643700 -2.377400
								CHANNELS 3 Zrotation Yrotation Xrotation
								End Site
								{
									OFFSET 0.000000 0.000000 0.000000
								}
							}
						}
					}
					JOINT LeftShoulder_virtual
					{
						OFFSET 0.000000 0.000000 0.000000
						CHANNELS 3 Zrotation Yrotation Xrotation
						JOINT LeftShoulder
						{
							OFFSET 4.392200 8.824978 0.174984
							CHANNELS 3 Zrotation Yrotation Xrotation
							JOINT LeftArm
							{
								OFFSET 8.771219 -2.981674 -0.026999
								CHANNELS 3 Zrotation Yrotation Xrotation
								JOINT LeftForeArm
								{
									OFFSET 8.512804 0.000000 -0.000000
									CHANNELS 3 Zrotation Yrotation Xrotation
									JOINT LeftHand
									{
										OFFSET 18.484802 0.000000 -0.000000
										CHANNELS 3 Zrotation Yrotation Xrotation
										End Site
										{
											OFFSET 0.000000 0.000000 0.000000
										}
									}
								}
							}
						}
					}
					JOINT RightShoulder_virtual
					{
						OFFSET 0.000000 0.000000 0.000000
						CHANNELS 3 Zrotation Yrotation Xrotation
						JOINT RightShoulder
						{
							OFFSET -4.392200 8.824993 0.141379
							CHANNELS 3 Zrotation Yrotation Xrotation
							JOINT RightArm
							{
								OFFSET -8.771282 -2.981682 -0.094208
								CHANNELS 3 Zrotation Yrotation Xrotation
								JOINT RightForeArm
								{
									OFFSET -8.494598 0.000000 0.000000
									CHANNELS 3 Zrotation Yrotation Xrotation
									JOINT RightHand
									{
										OFFSET -18.483803 0.000000 0.000001
										CHANNELS 3 Zrotation Yrotation Xrotation
										End Site
										{
											OFFSET 0.000000 0.000000 0.000000
										}
									}
								}
							}
						}
					}
				}
			}
		}
	}
}
MOTION
Frames: 8
Frame Time: 0.033333
6.320587 36.065231 0.524741 -179.972794 -10.964310 -179.795181 -0.691807 -3.054982 14.410012 -2.999378 -5.603522 -13.287430 6.737925 5.580708 16.196388 1.338570 1.769884 4.179368 0.000000 0.000000 0.000000 4.954282 -1.468846 14.350338 -3.299595 6.682591 -13.632686 -4.313040 6.099856 17.220328 10.728305 3.854970 0.289444 0.000000 0.000000 0.000000 2.295970 0.794198 0.873304 1.890973 -1.761921 -14.179661 -1.176824 -2.084600 7.767943 -0.017445 0.037764 0.052731 -1.750650 0.330697 9.554822 -2.012319 2.419579 15.416452 0.000000 0.000000 0.000000 0.135488 0.994544 6.757400 -13.778179 -4.003140 0.651142 -53.510328 25.800324 -5.805375 3.371924 -30.865516 2.134326 0.000000 0.000000 0.000000 -4.343290 2.249465 5.978478 25.296608 0.911548 6.707298 47.144271 -20.550791 -5.091046 -4.220154 25.033719 -3.702525 0.000000 0.000000 0.000000 
6.352265 36.064770 0.503481 -179.867786 -10.806002 -179.713779 -0.589970 -2.955986 14.621690 -3.157663 -5.510600 -13.197243 6.698961 5.974353 16.384635 1.607605 2.161826 4.110732 0.000000 0.000000 0.000000 5.239721 -1.230693 14.434059 -3.552025 6.784720 -13.594863 -4.425513 6.066944 16.815934 11.006695 4.186725 0.259446 0.000000 0.000000 0.000000 2.405570 0.831541 0.875051 1.891303 -1.704434 -14.248850 -1.101375 -2.083841 7.765782 0.012720 0.059303 0.012242 -1.736189 0.326617 9.673564 -1.956658 2.477960 15.423271 0.000000 0.000000 0.000000 0.132363 1.041007 6.864657 -13.845983 -3.857651 0.636322 -53.564584 26.667227 -6.022794 3.433072 -30.449072 2.181044 0.000000 0.000000 0.000000 -4.353300 2.190191 6.130757 25.272608 0.892227 6.597134 47.405068 -21.050312 -5.602626 -4.284573 24.856995 -3.778588 0.000000 0.000000 0.000000 
6.404681 36.069553 0.492106 179.998243 -10.880779 -179.656324 -0.721875 -3.000935 14.669436 -2.967047 -5.810848 -13.353530 6.579642 5.564874 16.356278 2.104268 2.278426 4.224656 0.000000 0.000000 0.000000 5.087614 -1.227073 14.441851 -3.362996 6.570871 -13.469810 -4.329709 6.396867 16.518620 10.820050 4.017013 0.325086 0.000000 0.000000 0.000000 2.354958 0.794629 0.798227 1.789483 -1.657159 -14.156961 -1.054622 -2.093289 7.816601 -0.007169 0.045516 0.028924 -1.625717 0.313135 9.708101 -1.989855 2.543217 15.387525 0.000000 0.000000 0.000000 0.273335 1.017717 6.894206 -13.958160 -3.705400 0.697555 -53.674946 27.707415 -6.392875 3.461577 -30.262075 2.335079 0.000000 0.000000 0.000000 -4.245745 2.185197 6.146232 25.212518 0.795043 6.480605 47.873284 -21.669374 -6.584423 -4.330204 24.709956 -3.812221 0.000000 0.000000 0.000000 
6.467727 36.077484 0.496869 -179.996003 -10.953733 -179.684122 -0.763128 -2.989917 14.718142 -2.804424 -6.105024 -13.458540 6.595413 5.441438 16.422602 2.210284 2.298716 4.278405 0.000000 0.000000 0.000000 5.075323 -1.376087 14.392824 -3.259650 6.416569 -13.463768 -4.111347 6.706217 16.447881 10.595201 3.865984 0.393640 0.000000 0.000000 0.000000 2.386329 0.730830 0.834921 1.769233 -1.530810 -14.090035 -0.996704 -2.073501 7.873606 -0.010820 0.058676 0.041636 -1.530295 0.341886 9.708827 -2.041526 2.627549 15.327185 0.000000 0.000000 0.000000 0.344813 0.976098 6.904374 -14.162689 -3.688803 0.870563 -53.844861 28.426735 -7.066480 3.479658 -30.528494 2.508690 0.000000 0.000000 0.000000 -4.182337 2.186923 6.200687 25.107248 0.767374 6.326303 48.492014 -22.260410 -7.520389 -4.431506 24.594543 -3.844757 0.000000 0.000000 0.000000 
6.533233 36.082493 0.516437 179.880709 -11.221145 -179.632022 -0.901757 -3.150935 14.652610 -2.605908 -6.358412 -13.570788 6.568926 5.350517 16.518818 2.263583 2.308140 4.315822 0.000000 0.000000 0.000000 4.961547 -1.541109 14.249521 -3.114748 6.107150 -13.307394 -4.075234 6.443311 16.293715 10.653861 4.009943 0.546117 0.000000 0.000000 0.000000 2.332283 0.627219 0.717403 1.732913 -1.402072 -13.966624 -0.946338 -2.051712 7.981167 0.020750 0.048390 0.045419 -1.485815 0.315445 9.779147 -2.140929 2.714702 15.274446 0.000000 0.000000 0.000000 0.376624 1.004777 7.011245 -14.461872 -3.821395 0.856684 -53.845325 28.471230 -7.539010 3.525027 -30.931697 2.618626 0.000000 0.000000 0.000000 -4.157910 2.157430 6.229790 24.966773 0.836834 6.132504 49.044522 -22.582815 -8.102484 -4.592218 24.639573 -4.006679 0.000000 0.000000 0.000000 
6.601642 36.075962 0.557077 179.959611 -11.548615 -179.660668 -0.665331 -3.229348 14.556267 -2.614856 -6.620913 -13.665894 6.716197 5.199706 16.592380 2.179794 2.267365 4.402006 0.000000 0.000000 0.000000 5.072336 -1.575775 14.117386 -2.973488 5.818860 -13.130070 -3.983990 6.272811 16.324169 10.560122 4.019319 0.509205 0.000000 0.000000 0.000000 2.450712 0.562699 0.616496 1.820915 -1.262540 -13.835647 -0.989179 -2.078428 8.079336 0.017895 0.021104 0.062952 -1.500104 0.346848 9.779308 -2.238026 2.840685 15.163201 0.000000 0.000000 0.000000 0.322155 1.002087 7.017023 -14.856338 -4.116658 1.063537 -53.730762 27.737004 -7.972772 3.517897 -31.362494 2.809501 0.000000 0.000000 0.000000 -4.202404 2.191617 6.303319 24.887416 1.082746 5.958412 49.337188 -22.569402 -8.244421 -4.701107 24.901473 -3.995153 0.000000 0.000000 0.000000 
6.673552 36.058090 0.614056 179.875190 -11.855023 -179.690638 -0.668590 -3.175026 14.474286 -2.453317 -6.934108 -13.839919 6.501196 4.866047 16.646151 2.447627 2.348482 4.462383 0.000000 0.000000 0.000000 5.012790 -1.521603 13.973040 -2.758095 5.730095 -13.029143 -3.921408 6.302826 16.579217 10.245574 3.921682 0.214418 0.000000 0.000000 0.000000 2.471087 0.502775 0.579953 1.853196 -1.126042 -13.713239 -1.059972 -2.096295 8.179915 0.067691 0.037940 0.023309 -1.555259 0.457500 9.878116 -2.390647 2.927847 15.058617 0.000000 0.000000 0.000000 0.224966 0.976706 7.100141 -15.310632 -4.720542 1.272061 -53.078066 26.045243 -7.678489 3.420660 -31.624899 2.982934 0.000000 0.000000 0.000000 -4.266467 2.178183 6.399772 24.818005 1.453192 5.741441 49.312685 -22.170572 -7.919853 -4.814240 25.386297 -4.037176 0.000000 0.000000 0.000000 
6.744976 36.038429 0.715097 179.974269 -12.344612 -179.684587 -0.386748 -3.154903 14.318347 -2.388698 -7.248890 -14.168919 6.481383 4.646934 16.726153 2.288658 2.372773 4.537518 0.000000 0.000000 0.000000 5.142198 -1.344549 13.820730 -2.561713 5.597461 -12.924622 -3.928744 6.127638 16.787703 9.883899 3.809751 -0.086253 0.000000 0.000000 0.000000 2.616622 0.640496 0.360327 1.962077 -1.079414 -13.532336 -1.120542 -2.007807 8.329796 0.015637 0.009148 0.048444 -1.622448 0.218881 9.992782 -2.543948 3.057991 14.945321 0.000000 0.000000 0.000000 0.155904 0.895698 7.149266 -15.757523 -5.847306 1.476620 -51.642651 23.380390 -6.205311 3.200684 -31.755803 3.242282 0.000000 0.000000 0.000000 -4.297077 2.008801 6.500052 24.837385 1.910001 5.542626 48.776041 -21.306886 -7.084512 -4.871708 25.966789 -4.038240 0.000000 0.000000 0.000000 
